<?xml version="1.0" encoding="utf-8"?>
<!-- Generator: Adobe Illustrator 19.0.0, SVG Export Plug-In . SVG Version: 6.00 Build 0)  -->
<svg version="1.1" xmlns="http://www.w3.org/2000/svg" xmlns:xlink="http://www.w3.org/1999/xlink" x="0px" y="0px"
	 viewBox="0 0 728 90" style="enable-background:new 0 0 728 90;" xml:space="preserve">
<style type="text/css">
	.st0{fill:#FFFFFF;}
	.st1{fill:#42AFE3;}
	.st2{fill:none;}
	.st3{font-family:'MyriadPro-Regular';}
	.st4{font-size:60px;}
</style>
<g id="Layer_7">
	<polygon class="st0" points="271.9,6.1 138.6,5.8 138.6,84.6 271.9,84.8 	"/>
</g>
<g id="Layer_3">
	<rect x="5.6" y="5.8" class="st1" width="133" height="78.8"/>
</g>
<g id="Layer_5">
	<rect x="123.4" y="5.6" class="st2" width="133" height="47.5"/>
	<text transform="matrix(1 0 0 1 123.3535 48.2246)" class="st1 st3 st4">ence</text>
</g>
<g id="Layer_4">
	<g>
		<path class="st0" d="M38.4,47.1c-1.9,1-5.8,1.9-10.7,1.9c-11.4,0-20-7.2-20-20.5c0-12.7,8.6-21.2,21.1-21.2c5,0,8.2,1.1,9.6,1.8
			l-1.3,4.3c-2-1-4.8-1.7-8.2-1.7c-9.5,0-15.8,6.1-15.8,16.7c0,9.9,5.7,16.3,15.5,16.3c3.2,0,6.4-0.7,8.5-1.7L38.4,47.1z"/>
		<path class="st0" d="M44.6,28.5c0-3.4-0.1-6.4-0.2-9.1H49l0.2,5.7h0.2c1.3-3.9,4.5-6.4,8-6.4c0.6,0,1,0.1,1.5,0.2v5
			c-0.5-0.1-1.1-0.2-1.8-0.2c-3.7,0-6.4,2.8-7.1,6.8c-0.1,0.7-0.2,1.6-0.2,2.5v15.5h-5.2V28.5z"/>
		<path class="st0" d="M66.6,34.9C66.7,42,71.2,45,76.5,45c3.8,0,6.1-0.7,8-1.5l0.9,3.8c-1.9,0.8-5,1.8-9.7,1.8
			c-8.9,0-14.3-5.9-14.3-14.6c0-8.8,5.2-15.7,13.6-15.7c9.5,0,12,8.3,12,13.7c0,1.1-0.1,1.9-0.2,2.5H66.6z M82,31.1
			c0.1-3.4-1.4-8.6-7.3-8.6c-5.3,0-7.7,4.9-8.1,8.6H82z"/>
		<path class="st0" d="M118.8,5.8v35.1c0,2.6,0.1,5.5,0.2,7.5h-4.7l-0.2-5h-0.1c-1.6,3.2-5.2,5.7-9.9,5.7c-7,0-12.4-5.9-12.4-14.8
			c-0.1-9.7,5.9-15.6,13-15.6c4.4,0,7.4,2.1,8.8,4.4h0.1V5.8H118.8z M113.5,31.2c0-0.7-0.1-1.6-0.2-2.2c-0.8-3.4-3.7-6.1-7.6-6.1
			c-5.5,0-8.7,4.8-8.7,11.2c0,5.9,2.9,10.7,8.6,10.7c3.5,0,6.8-2.3,7.7-6.3c0.2-0.7,0.2-1.4,0.2-2.3V31.2z"/>
	</g>
</g>
<g id="Layer_6">
</g>
<g id="Layer_2">
	<path class="st0" d="M138.6,31.1h-7.9c0.4-3.6,2.7-8.4,7.9-8.6v-3.8c-8.1,0.3-13,7.1-13,15.6c0,8.3,4.8,14,13,14.6v-4.2
		c-4.4-0.7-7.8-3.7-7.9-9.9h7.9V31.1z"/>
</g>
</svg>
