<?xml version="1.0" encoding="utf-8"?>
<!-- Generator: Adobe Illustrator 19.0.0, SVG Export Plug-In . SVG Version: 6.00 Build 0)  -->
<svg version="1.1" id="Layer_1" xmlns="http://www.w3.org/2000/svg" xmlns:xlink="http://www.w3.org/1999/xlink" x="0px" y="0px"
	 viewBox="-115 236 728 90" style="enable-background:new -115 236 728 90;" xml:space="preserve">
<style type="text/css">
	.st0{fill:#FFFFFF;}
	.st1{fill:#42AFE3;}
	.st2{fill:none;}
	.st3{font-family:'ArialMT';}
	.st4{font-size:60px;}
	.st5{fill:#FCFCFC;}
	.st6{font-family:'HelveticaLT-Oblique';}
	.st7{font-size:8px;}
	.st8{font-size:6px;}
</style>
<g id="Layer_7">
	<polygon class="st0" points="156.9,242.1 23.6,241.8 23.6,320.6 156.9,320.8 	"/>
</g>
<g id="Layer_3">
	<rect x="-109.4" y="241.8" class="st1" width="133" height="78.8"/>
</g>
<g id="Layer_5">
	<rect x="8.4" y="241.6" class="st2" width="133" height="47.5"/>
	<text transform="matrix(1 0 0 1 8.3535 284.2246)" class="st1 st3 st4">ence</text>
</g>
<g id="Layer_4">
	<g>
		<path class="st0" d="M-76.6,283.1c-1.9,1-5.8,1.9-10.7,1.9c-11.4,0-20-7.2-20-20.5c0-12.7,8.6-21.2,21.1-21.2c5,0,8.2,1.1,9.6,1.8
			l-1.3,4.3c-2-1-4.8-1.7-8.2-1.7c-9.5,0-15.8,6.1-15.8,16.7c0,9.9,5.7,16.3,15.5,16.3c3.2,0,6.4-0.7,8.5-1.7L-76.6,283.1z"/>
		<path class="st0" d="M-70.4,264.5c0-3.4-0.1-6.4-0.2-9.1h4.6l0.2,5.7h0.2c1.3-3.9,4.5-6.4,8-6.4c0.6,0,1,0.1,1.5,0.2v5
			c-0.5-0.1-1.1-0.2-1.8-0.2c-3.7,0-6.4,2.8-7.1,6.8c-0.1,0.7-0.2,1.6-0.2,2.5v15.5h-5.2C-70.4,284.5-70.4,264.5-70.4,264.5z"/>
		<path class="st0" d="M-48.4,270.9c0.1,7.1,4.6,10.1,9.9,10.1c3.8,0,6.1-0.7,8-1.5l0.9,3.8c-1.9,0.8-5,1.8-9.7,1.8
			c-8.9,0-14.3-5.9-14.3-14.6c0-8.8,5.2-15.7,13.6-15.7c9.5,0,12,8.3,12,13.7c0,1.1-0.1,1.9-0.2,2.5h-20.2V270.9z M-33,267.1
			c0.1-3.4-1.4-8.6-7.3-8.6c-5.3,0-7.7,4.9-8.1,8.6H-33z"/>
		<path class="st0" d="M3.8,241.8v35.1c0,2.6,0.1,5.5,0.2,7.5h-4.7l-0.2-5H-1c-1.6,3.2-5.2,5.7-9.9,5.7c-7,0-12.4-5.9-12.4-14.8
			c-0.1-9.7,5.9-15.6,13-15.6c4.4,0,7.4,2.1,8.8,4.4h0.1v-17.3H3.8z M-1.5,267.2c0-0.7-0.1-1.6-0.2-2.2c-0.8-3.4-3.7-6.1-7.6-6.1
			c-5.5,0-8.7,4.8-8.7,11.2c0,5.9,2.9,10.7,8.6,10.7c3.5,0,6.8-2.3,7.7-6.3c0.2-0.7,0.2-1.4,0.2-2.3V267.2z"/>
	</g>
</g>
<g id="Layer_6">
</g>
<g id="Layer_2">
	<path class="st0" d="M23.6,267.1h-7.9c0.4-3.6,2.7-8.4,7.9-8.6v-3.8c-8.1,0.3-13,7.1-13,15.6c0,8.3,4.8,14,13,14.6v-4.2
		c-4.4-0.7-7.8-3.7-7.9-9.9h7.9V267.1z"/>
</g>
<rect x="-101.9" y="295.7" class="st2" width="122.3" height="23.7"/>
<text transform="matrix(1 0 0 1 -101.8644 301.4111)"><tspan x="0" y="0" class="st5 st6 st7">(noun)</tspan><tspan x="0" y="7.2" class="st5 st6 st8">Belief in or acceptance of something as true.</tspan></text>
</svg>
